<mxfile host="app.diagrams.net" agent="Mozilla/5.0 (Windows NT 10.0; Win64; x64) AppleWebKit/537.36 (KHTML, like Gecko) Chrome/132.0.0.0 Safari/537.36 Edg/132.0.0.0" version="26.0.8">
  <diagram name="Admin-PO" id="hlq6OcXr3DWylwT_FIdp">
    <mxGraphModel dx="2232" dy="2036" grid="1" gridSize="10" guides="1" tooltips="1" connect="1" arrows="1" fold="1" page="1" pageScale="1" pageWidth="850" pageHeight="1100" math="0" shadow="0">
      <root>
        <mxCell id="0" />
        <mxCell id="1" parent="0" />
        <mxCell id="_SuKMQ1r3uTmShmNJGXI-1" value="Admin PO" style="shape=umlActor;verticalLabelPosition=bottom;verticalAlign=top;html=1;outlineConnect=0;" vertex="1" parent="1">
          <mxGeometry x="110" y="290" width="30" height="60" as="geometry" />
        </mxCell>
        <mxCell id="_SuKMQ1r3uTmShmNJGXI-2" value="Membuat Tiket" style="ellipse;whiteSpace=wrap;html=1;" vertex="1" parent="1">
          <mxGeometry x="300" y="300" width="105" height="40" as="geometry" />
        </mxCell>
        <mxCell id="_SuKMQ1r3uTmShmNJGXI-3" value="Memilih Bus" style="ellipse;whiteSpace=wrap;html=1;" vertex="1" parent="1">
          <mxGeometry x="490" y="210" width="105" height="40" as="geometry" />
        </mxCell>
        <mxCell id="_SuKMQ1r3uTmShmNJGXI-4" value="Memilih Kota Keberangkatan dan Tujuan" style="ellipse;whiteSpace=wrap;html=1;" vertex="1" parent="1">
          <mxGeometry x="490" y="280" width="180" height="40" as="geometry" />
        </mxCell>
        <mxCell id="_SuKMQ1r3uTmShmNJGXI-5" value="Menentukan Harga Tiket" style="ellipse;whiteSpace=wrap;html=1;" vertex="1" parent="1">
          <mxGeometry x="490" y="350" width="105" height="40" as="geometry" />
        </mxCell>
        <mxCell id="_SuKMQ1r3uTmShmNJGXI-6" value="Menentukan waktu dan jadwal keberangkatan" style="ellipse;whiteSpace=wrap;html=1;" vertex="1" parent="1">
          <mxGeometry x="490" y="420" width="180" height="40" as="geometry" />
        </mxCell>
        <mxCell id="_SuKMQ1r3uTmShmNJGXI-7" value="" style="endArrow=none;html=1;rounded=0;exitX=0.5;exitY=0.5;exitDx=0;exitDy=0;exitPerimeter=0;entryX=0;entryY=0.5;entryDx=0;entryDy=0;" edge="1" parent="1" source="_SuKMQ1r3uTmShmNJGXI-1" target="_SuKMQ1r3uTmShmNJGXI-2">
          <mxGeometry width="50" height="50" relative="1" as="geometry">
            <mxPoint x="160" y="440" as="sourcePoint" />
            <mxPoint x="210" y="390" as="targetPoint" />
          </mxGeometry>
        </mxCell>
        <mxCell id="_SuKMQ1r3uTmShmNJGXI-8" value="" style="endArrow=classic;html=1;rounded=0;entryX=0;entryY=0.5;entryDx=0;entryDy=0;exitX=1;exitY=0.5;exitDx=0;exitDy=0;" edge="1" parent="1" source="_SuKMQ1r3uTmShmNJGXI-2" target="_SuKMQ1r3uTmShmNJGXI-3">
          <mxGeometry relative="1" as="geometry">
            <mxPoint x="300" y="380" as="sourcePoint" />
            <mxPoint x="400" y="380" as="targetPoint" />
          </mxGeometry>
        </mxCell>
        <mxCell id="_SuKMQ1r3uTmShmNJGXI-9" value="Include" style="edgeLabel;resizable=0;html=1;;align=center;verticalAlign=middle;" connectable="0" vertex="1" parent="_SuKMQ1r3uTmShmNJGXI-8">
          <mxGeometry relative="1" as="geometry" />
        </mxCell>
        <mxCell id="_SuKMQ1r3uTmShmNJGXI-11" value="" style="endArrow=classic;html=1;rounded=0;entryX=0;entryY=0.5;entryDx=0;entryDy=0;exitX=1;exitY=0.5;exitDx=0;exitDy=0;" edge="1" parent="1" source="_SuKMQ1r3uTmShmNJGXI-2" target="_SuKMQ1r3uTmShmNJGXI-4">
          <mxGeometry relative="1" as="geometry">
            <mxPoint x="415" y="330" as="sourcePoint" />
            <mxPoint x="500" y="240" as="targetPoint" />
          </mxGeometry>
        </mxCell>
        <mxCell id="_SuKMQ1r3uTmShmNJGXI-12" value="Include" style="edgeLabel;resizable=0;html=1;;align=center;verticalAlign=middle;" connectable="0" vertex="1" parent="_SuKMQ1r3uTmShmNJGXI-11">
          <mxGeometry relative="1" as="geometry" />
        </mxCell>
        <mxCell id="_SuKMQ1r3uTmShmNJGXI-14" value="" style="endArrow=classic;html=1;rounded=0;entryX=0;entryY=0.5;entryDx=0;entryDy=0;exitX=1;exitY=0.5;exitDx=0;exitDy=0;" edge="1" parent="1" source="_SuKMQ1r3uTmShmNJGXI-2" target="_SuKMQ1r3uTmShmNJGXI-5">
          <mxGeometry relative="1" as="geometry">
            <mxPoint x="415" y="330" as="sourcePoint" />
            <mxPoint x="500" y="310" as="targetPoint" />
          </mxGeometry>
        </mxCell>
        <mxCell id="_SuKMQ1r3uTmShmNJGXI-15" value="Include" style="edgeLabel;resizable=0;html=1;;align=center;verticalAlign=middle;" connectable="0" vertex="1" parent="_SuKMQ1r3uTmShmNJGXI-14">
          <mxGeometry relative="1" as="geometry" />
        </mxCell>
        <mxCell id="_SuKMQ1r3uTmShmNJGXI-16" value="" style="endArrow=classic;html=1;rounded=0;entryX=0;entryY=0.5;entryDx=0;entryDy=0;exitX=1;exitY=0.5;exitDx=0;exitDy=0;" edge="1" parent="1" source="_SuKMQ1r3uTmShmNJGXI-2" target="_SuKMQ1r3uTmShmNJGXI-6">
          <mxGeometry relative="1" as="geometry">
            <mxPoint x="415" y="330" as="sourcePoint" />
            <mxPoint x="500" y="380" as="targetPoint" />
          </mxGeometry>
        </mxCell>
        <mxCell id="_SuKMQ1r3uTmShmNJGXI-17" value="Include" style="edgeLabel;resizable=0;html=1;;align=center;verticalAlign=middle;" connectable="0" vertex="1" parent="_SuKMQ1r3uTmShmNJGXI-16">
          <mxGeometry relative="1" as="geometry" />
        </mxCell>
        <mxCell id="_SuKMQ1r3uTmShmNJGXI-18" value="Mengontrol Bus" style="ellipse;whiteSpace=wrap;html=1;" vertex="1" parent="1">
          <mxGeometry x="300" y="510" width="105" height="40" as="geometry" />
        </mxCell>
        <mxCell id="_SuKMQ1r3uTmShmNJGXI-19" value="Menambahkan Bus" style="ellipse;whiteSpace=wrap;html=1;" vertex="1" parent="1">
          <mxGeometry x="470" y="510" width="105" height="40" as="geometry" />
        </mxCell>
        <mxCell id="_SuKMQ1r3uTmShmNJGXI-20" value="Mengubah data Bus" style="ellipse;whiteSpace=wrap;html=1;" vertex="1" parent="1">
          <mxGeometry x="470" y="580" width="105" height="40" as="geometry" />
        </mxCell>
        <mxCell id="_SuKMQ1r3uTmShmNJGXI-21" value="Menghapus Bus" style="ellipse;whiteSpace=wrap;html=1;" vertex="1" parent="1">
          <mxGeometry x="470" y="650" width="105" height="40" as="geometry" />
        </mxCell>
        <mxCell id="_SuKMQ1r3uTmShmNJGXI-22" value="Melihat data Bus" style="ellipse;whiteSpace=wrap;html=1;" vertex="1" parent="1">
          <mxGeometry x="470" y="720" width="105" height="40" as="geometry" />
        </mxCell>
        <mxCell id="_SuKMQ1r3uTmShmNJGXI-23" value="" style="endArrow=classic;html=1;rounded=0;entryX=0;entryY=0.5;entryDx=0;entryDy=0;exitX=1;exitY=0.5;exitDx=0;exitDy=0;" edge="1" parent="1" source="_SuKMQ1r3uTmShmNJGXI-18" target="_SuKMQ1r3uTmShmNJGXI-19">
          <mxGeometry width="50" height="50" relative="1" as="geometry">
            <mxPoint x="180" y="600" as="sourcePoint" />
            <mxPoint x="230" y="550" as="targetPoint" />
          </mxGeometry>
        </mxCell>
        <mxCell id="_SuKMQ1r3uTmShmNJGXI-24" value="" style="endArrow=classic;html=1;rounded=0;entryX=0;entryY=0.5;entryDx=0;entryDy=0;exitX=1;exitY=0.5;exitDx=0;exitDy=0;" edge="1" parent="1" source="_SuKMQ1r3uTmShmNJGXI-18" target="_SuKMQ1r3uTmShmNJGXI-20">
          <mxGeometry width="50" height="50" relative="1" as="geometry">
            <mxPoint x="415" y="540" as="sourcePoint" />
            <mxPoint x="480" y="540" as="targetPoint" />
          </mxGeometry>
        </mxCell>
        <mxCell id="_SuKMQ1r3uTmShmNJGXI-25" value="" style="endArrow=classic;html=1;rounded=0;entryX=0;entryY=0.5;entryDx=0;entryDy=0;exitX=1;exitY=0.5;exitDx=0;exitDy=0;" edge="1" parent="1" source="_SuKMQ1r3uTmShmNJGXI-18" target="_SuKMQ1r3uTmShmNJGXI-21">
          <mxGeometry width="50" height="50" relative="1" as="geometry">
            <mxPoint x="415" y="540" as="sourcePoint" />
            <mxPoint x="480" y="610" as="targetPoint" />
          </mxGeometry>
        </mxCell>
        <mxCell id="_SuKMQ1r3uTmShmNJGXI-26" value="" style="endArrow=classic;html=1;rounded=0;entryX=0;entryY=0.5;entryDx=0;entryDy=0;exitX=1;exitY=0.5;exitDx=0;exitDy=0;" edge="1" parent="1" source="_SuKMQ1r3uTmShmNJGXI-18" target="_SuKMQ1r3uTmShmNJGXI-22">
          <mxGeometry width="50" height="50" relative="1" as="geometry">
            <mxPoint x="415" y="540" as="sourcePoint" />
            <mxPoint x="480" y="680" as="targetPoint" />
          </mxGeometry>
        </mxCell>
        <mxCell id="_SuKMQ1r3uTmShmNJGXI-27" value="" style="endArrow=none;html=1;rounded=0;exitX=0.5;exitY=0.5;exitDx=0;exitDy=0;exitPerimeter=0;entryX=0;entryY=0.5;entryDx=0;entryDy=0;" edge="1" parent="1" source="_SuKMQ1r3uTmShmNJGXI-1" target="_SuKMQ1r3uTmShmNJGXI-18">
          <mxGeometry width="50" height="50" relative="1" as="geometry">
            <mxPoint x="135" y="330" as="sourcePoint" />
            <mxPoint x="310" y="330" as="targetPoint" />
          </mxGeometry>
        </mxCell>
        <mxCell id="_SuKMQ1r3uTmShmNJGXI-34" style="edgeStyle=orthogonalEdgeStyle;rounded=0;orthogonalLoop=1;jettySize=auto;html=1;entryX=0;entryY=0.5;entryDx=0;entryDy=0;" edge="1" parent="1" source="_SuKMQ1r3uTmShmNJGXI-28" target="_SuKMQ1r3uTmShmNJGXI-29">
          <mxGeometry relative="1" as="geometry" />
        </mxCell>
        <mxCell id="_SuKMQ1r3uTmShmNJGXI-28" value="Mengontrol Rute" style="ellipse;whiteSpace=wrap;html=1;" vertex="1" parent="1">
          <mxGeometry x="300" y="110" width="105" height="40" as="geometry" />
        </mxCell>
        <mxCell id="_SuKMQ1r3uTmShmNJGXI-29" value="Menambahkan Terminal atau Kota" style="ellipse;whiteSpace=wrap;html=1;" vertex="1" parent="1">
          <mxGeometry x="500" y="110" width="105" height="40" as="geometry" />
        </mxCell>
        <mxCell id="_SuKMQ1r3uTmShmNJGXI-31" value="Mengubah Terminal atau Kota" style="ellipse;whiteSpace=wrap;html=1;" vertex="1" parent="1">
          <mxGeometry x="500" y="50" width="105" height="40" as="geometry" />
        </mxCell>
        <mxCell id="_SuKMQ1r3uTmShmNJGXI-32" value="Menghapus Terminal atau Kota" style="ellipse;whiteSpace=wrap;html=1;" vertex="1" parent="1">
          <mxGeometry x="500" y="-20" width="105" height="40" as="geometry" />
        </mxCell>
        <mxCell id="_SuKMQ1r3uTmShmNJGXI-33" value="Melihat Terminal atau Kota" style="ellipse;whiteSpace=wrap;html=1;" vertex="1" parent="1">
          <mxGeometry x="500" y="-80" width="105" height="40" as="geometry" />
        </mxCell>
        <mxCell id="_SuKMQ1r3uTmShmNJGXI-37" value="" style="endArrow=classic;html=1;rounded=0;entryX=0;entryY=0.5;entryDx=0;entryDy=0;exitX=1;exitY=0.5;exitDx=0;exitDy=0;" edge="1" parent="1" source="_SuKMQ1r3uTmShmNJGXI-28" target="_SuKMQ1r3uTmShmNJGXI-31">
          <mxGeometry width="50" height="50" relative="1" as="geometry">
            <mxPoint x="430" y="120" as="sourcePoint" />
            <mxPoint x="480" y="70" as="targetPoint" />
          </mxGeometry>
        </mxCell>
        <mxCell id="_SuKMQ1r3uTmShmNJGXI-38" value="" style="endArrow=classic;html=1;rounded=0;entryX=0;entryY=0.5;entryDx=0;entryDy=0;exitX=1;exitY=0.5;exitDx=0;exitDy=0;" edge="1" parent="1" source="_SuKMQ1r3uTmShmNJGXI-28" target="_SuKMQ1r3uTmShmNJGXI-32">
          <mxGeometry width="50" height="50" relative="1" as="geometry">
            <mxPoint x="415" y="140" as="sourcePoint" />
            <mxPoint x="510" y="80" as="targetPoint" />
          </mxGeometry>
        </mxCell>
        <mxCell id="_SuKMQ1r3uTmShmNJGXI-39" value="" style="endArrow=classic;html=1;rounded=0;entryX=0;entryY=0.5;entryDx=0;entryDy=0;exitX=1;exitY=0.5;exitDx=0;exitDy=0;" edge="1" parent="1" source="_SuKMQ1r3uTmShmNJGXI-28" target="_SuKMQ1r3uTmShmNJGXI-33">
          <mxGeometry width="50" height="50" relative="1" as="geometry">
            <mxPoint x="415" y="140" as="sourcePoint" />
            <mxPoint x="510" y="10" as="targetPoint" />
          </mxGeometry>
        </mxCell>
        <mxCell id="_SuKMQ1r3uTmShmNJGXI-40" value="" style="endArrow=none;html=1;rounded=0;exitX=0.5;exitY=0.5;exitDx=0;exitDy=0;exitPerimeter=0;entryX=0;entryY=0.5;entryDx=0;entryDy=0;" edge="1" parent="1" source="_SuKMQ1r3uTmShmNJGXI-1" target="_SuKMQ1r3uTmShmNJGXI-28">
          <mxGeometry width="50" height="50" relative="1" as="geometry">
            <mxPoint x="135" y="330" as="sourcePoint" />
            <mxPoint x="310" y="330" as="targetPoint" />
          </mxGeometry>
        </mxCell>
        <mxCell id="_SuKMQ1r3uTmShmNJGXI-41" value="Mengubah informasi PO" style="ellipse;whiteSpace=wrap;html=1;" vertex="1" parent="1">
          <mxGeometry x="-150" y="190" width="105" height="40" as="geometry" />
        </mxCell>
        <mxCell id="_SuKMQ1r3uTmShmNJGXI-43" value="Melihat Laporan" style="ellipse;whiteSpace=wrap;html=1;" vertex="1" parent="1">
          <mxGeometry x="-150" y="300" width="105" height="40" as="geometry" />
        </mxCell>
        <mxCell id="_SuKMQ1r3uTmShmNJGXI-44" value="Melihat Tiket yang ditawarkan" style="ellipse;whiteSpace=wrap;html=1;" vertex="1" parent="1">
          <mxGeometry x="-360" y="240" width="105" height="40" as="geometry" />
        </mxCell>
        <mxCell id="_SuKMQ1r3uTmShmNJGXI-45" value="Mencari tiket berdasarkan waktu" style="ellipse;whiteSpace=wrap;html=1;" vertex="1" parent="1">
          <mxGeometry x="-500" y="180" width="105" height="40" as="geometry" />
        </mxCell>
        <mxCell id="_SuKMQ1r3uTmShmNJGXI-46" value="Mencari tiket berdasarkan bus" style="ellipse;whiteSpace=wrap;html=1;" vertex="1" parent="1">
          <mxGeometry x="-500" y="240" width="105" height="40" as="geometry" />
        </mxCell>
        <mxCell id="_SuKMQ1r3uTmShmNJGXI-48" value="" style="endArrow=classic;html=1;rounded=0;entryX=1;entryY=0.5;entryDx=0;entryDy=0;exitX=0;exitY=0.5;exitDx=0;exitDy=0;" edge="1" parent="1" source="_SuKMQ1r3uTmShmNJGXI-44" target="_SuKMQ1r3uTmShmNJGXI-45">
          <mxGeometry width="50" height="50" relative="1" as="geometry">
            <mxPoint x="-320" y="220" as="sourcePoint" />
            <mxPoint x="-270" y="170" as="targetPoint" />
          </mxGeometry>
        </mxCell>
        <mxCell id="_SuKMQ1r3uTmShmNJGXI-49" value="" style="endArrow=classic;html=1;rounded=0;entryX=1;entryY=0.5;entryDx=0;entryDy=0;exitX=0;exitY=0.5;exitDx=0;exitDy=0;" edge="1" parent="1" source="_SuKMQ1r3uTmShmNJGXI-44" target="_SuKMQ1r3uTmShmNJGXI-46">
          <mxGeometry width="50" height="50" relative="1" as="geometry">
            <mxPoint x="-350" y="270" as="sourcePoint" />
            <mxPoint x="-385" y="210" as="targetPoint" />
          </mxGeometry>
        </mxCell>
        <mxCell id="_SuKMQ1r3uTmShmNJGXI-50" value="Melihat Tiket yang terjual" style="ellipse;whiteSpace=wrap;html=1;" vertex="1" parent="1">
          <mxGeometry x="-360" y="300" width="105" height="40" as="geometry" />
        </mxCell>
        <mxCell id="_SuKMQ1r3uTmShmNJGXI-51" value="Mencari tiket berdasarkan bus" style="ellipse;whiteSpace=wrap;html=1;" vertex="1" parent="1">
          <mxGeometry x="-500" y="370" width="105" height="40" as="geometry" />
        </mxCell>
        <mxCell id="_SuKMQ1r3uTmShmNJGXI-52" value="Mencari tiket berdasarkan waktu" style="ellipse;whiteSpace=wrap;html=1;" vertex="1" parent="1">
          <mxGeometry x="-500" y="300" width="105" height="40" as="geometry" />
        </mxCell>
        <mxCell id="_SuKMQ1r3uTmShmNJGXI-53" value="" style="endArrow=classic;html=1;rounded=0;exitX=0;exitY=0.5;exitDx=0;exitDy=0;entryX=1;entryY=0.5;entryDx=0;entryDy=0;" edge="1" parent="1" source="_SuKMQ1r3uTmShmNJGXI-50" target="_SuKMQ1r3uTmShmNJGXI-52">
          <mxGeometry width="50" height="50" relative="1" as="geometry">
            <mxPoint x="-420" y="460" as="sourcePoint" />
            <mxPoint x="-370" y="410" as="targetPoint" />
          </mxGeometry>
        </mxCell>
        <mxCell id="_SuKMQ1r3uTmShmNJGXI-54" value="" style="endArrow=classic;html=1;rounded=0;exitX=0;exitY=0.5;exitDx=0;exitDy=0;entryX=1;entryY=0.5;entryDx=0;entryDy=0;" edge="1" parent="1" source="_SuKMQ1r3uTmShmNJGXI-50" target="_SuKMQ1r3uTmShmNJGXI-51">
          <mxGeometry width="50" height="50" relative="1" as="geometry">
            <mxPoint x="-350" y="330" as="sourcePoint" />
            <mxPoint x="-385" y="330" as="targetPoint" />
          </mxGeometry>
        </mxCell>
        <mxCell id="_SuKMQ1r3uTmShmNJGXI-55" value="Melihat Transaksi" style="ellipse;whiteSpace=wrap;html=1;" vertex="1" parent="1">
          <mxGeometry x="-360" y="360" width="105" height="40" as="geometry" />
        </mxCell>
        <mxCell id="_SuKMQ1r3uTmShmNJGXI-57" value="" style="endArrow=none;html=1;rounded=0;entryX=0.5;entryY=0.5;entryDx=0;entryDy=0;entryPerimeter=0;exitX=1;exitY=0.5;exitDx=0;exitDy=0;" edge="1" parent="1" source="_SuKMQ1r3uTmShmNJGXI-43" target="_SuKMQ1r3uTmShmNJGXI-1">
          <mxGeometry width="50" height="50" relative="1" as="geometry">
            <mxPoint x="-60" y="380" as="sourcePoint" />
            <mxPoint x="-10" y="330" as="targetPoint" />
          </mxGeometry>
        </mxCell>
        <mxCell id="_SuKMQ1r3uTmShmNJGXI-58" value="" style="endArrow=none;html=1;rounded=0;entryX=0.5;entryY=0.5;entryDx=0;entryDy=0;entryPerimeter=0;exitX=1;exitY=0.5;exitDx=0;exitDy=0;" edge="1" parent="1" source="_SuKMQ1r3uTmShmNJGXI-41" target="_SuKMQ1r3uTmShmNJGXI-1">
          <mxGeometry width="50" height="50" relative="1" as="geometry">
            <mxPoint x="-35" y="330" as="sourcePoint" />
            <mxPoint x="135" y="330" as="targetPoint" />
          </mxGeometry>
        </mxCell>
        <mxCell id="_SuKMQ1r3uTmShmNJGXI-59" value="" style="endArrow=classic;html=1;rounded=0;entryX=1;entryY=0.5;entryDx=0;entryDy=0;exitX=0;exitY=0.5;exitDx=0;exitDy=0;" edge="1" parent="1" source="_SuKMQ1r3uTmShmNJGXI-43" target="_SuKMQ1r3uTmShmNJGXI-44">
          <mxGeometry width="50" height="50" relative="1" as="geometry">
            <mxPoint x="-260" y="390" as="sourcePoint" />
            <mxPoint x="-210" y="340" as="targetPoint" />
          </mxGeometry>
        </mxCell>
        <mxCell id="_SuKMQ1r3uTmShmNJGXI-60" value="" style="endArrow=classic;html=1;rounded=0;entryX=1;entryY=0.5;entryDx=0;entryDy=0;exitX=0;exitY=0.5;exitDx=0;exitDy=0;" edge="1" parent="1" source="_SuKMQ1r3uTmShmNJGXI-43" target="_SuKMQ1r3uTmShmNJGXI-50">
          <mxGeometry width="50" height="50" relative="1" as="geometry">
            <mxPoint x="-140" y="330" as="sourcePoint" />
            <mxPoint x="-245" y="270" as="targetPoint" />
          </mxGeometry>
        </mxCell>
        <mxCell id="_SuKMQ1r3uTmShmNJGXI-61" value="" style="endArrow=classic;html=1;rounded=0;entryX=1;entryY=0.5;entryDx=0;entryDy=0;exitX=0;exitY=0.5;exitDx=0;exitDy=0;" edge="1" parent="1" target="_SuKMQ1r3uTmShmNJGXI-55">
          <mxGeometry width="50" height="50" relative="1" as="geometry">
            <mxPoint x="-140" y="330" as="sourcePoint" />
            <mxPoint x="-245" y="330" as="targetPoint" />
          </mxGeometry>
        </mxCell>
      </root>
    </mxGraphModel>
  </diagram>
</mxfile>
